<svg id="Layer_1" data-name="Layer 1" xmlns="http://www.w3.org/2000/svg" width="1308.29" height="225.16" viewBox="0 0 1308.29 225.16"><defs><style>.cls-1{fill:#2fa449;}</style></defs><title>Logo</title><path class="cls-1" d="M798.15,91.3a220.87,220.87,0,0,1,39-3.44c28.28,0,58.47,6.31,58.47,45.86,0,34-25.41,46.81-51.78,46.81-2.48,0-12.23,0-14.9-.57v43.75H798.15Zm30.76,24.08v37.83a80.83,80.83,0,0,0,9.55.76c12.42,0,24.84-3.44,24.84-20.83,0-14.9-11.65-18.72-23.5-18.72A52.72,52.72,0,0,0,828.91,115.38Z" transform="translate(0 -1.5)"/><path class="cls-1" d="M1006.6,117.29h-38V223.71H937.82V117.29h-38V90H1006.6Z" transform="translate(0 -1.5)"/><path class="cls-1" d="M1019.78,90h30.76V223.71h-30.76Z" transform="translate(0 -1.5)"/><path class="cls-1" d="M1175.69,163.52l3.25-29.42h-1.15L1169,156.84l-25.6,45.28h-9.93l-27.14-45.47-8.78-22.55h-1.15l4.2,29.23v60.38h-29V90h29.23l33.06,57.9,6.3,15.47h1l5.73-15.85,31-57.52h28.66V223.71h-30.76Z" transform="translate(0 -1.5)"/><path class="cls-1" d="M1225.17,90h82.16v27.33h-51.39v25.6h46.62v27.32h-46.62v26.18h52.35v27.32h-83.12Z" transform="translate(0 -1.5)"/><path class="cls-1" d="M77,197.81H39.55L31,224H0L47,89.66H71.65l47,134.32H86.17ZM47,173.35H70.89l-7.65-24.84-3.82-21.4H58.28L54.45,148.7Z" transform="translate(0 -1.5)"/><path class="cls-1" d="M129.92,127.5c0-28.47,19.88-39.94,46.82-39.94,15.47,0,30.76,2.87,40.12,8.41l-9.74,25.79c-5.35-3.82-17.58-7.64-30.19-7.64-9.94,0-16.24,3.44-16.24,10.7,0,20.25,59.42,15.48,59.42,58.85,0,30.76-20.83,43-50.25,43-19.11,0-35.92-4.78-42.8-8.41L137,192.46c5.55,2.86,18.54,7.64,31.15,7.64,14.9,0,21.21-4.58,21.21-12.8C189.35,166.47,129.92,172.59,129.92,127.5Z" transform="translate(0 -1.5)"/><path class="cls-1" d="M236.54,127.5c0-28.47,19.87-39.94,46.81-39.94,15.48,0,30.76,2.87,40.12,8.41l-9.74,25.79c-5.35-3.82-17.58-7.64-30.19-7.64-9.94,0-16.24,3.44-16.24,10.7,0,20.25,59.42,15.48,59.42,58.85,0,30.76-20.82,43-50.25,43-19.11,0-35.92-4.78-42.8-8.41l9.94-25.79c5.54,2.86,18.53,7.64,31.14,7.64,14.9,0,21.21-4.58,21.21-12.8C296,166.47,236.54,172.59,236.54,127.5Z" transform="translate(0 -1.5)"/><path class="cls-1" d="M346.21,90.24h82.16v27.32H377v25.6h46.62v27.33H377v26.17h52.35V224H346.21Z" transform="translate(0 -1.5)"/><polygon class="cls-1" points="548.46 88.74 548.58 70.92 606.33 101.12 548.58 131.31 548.46 116.06 511.29 116.06 511.29 222.49 480.53 222.49 480.53 116.06 442.5 116.06 442.5 88.74 548.46 88.74"/><path class="cls-1" d="M777.17,1.5,757,32.49h10.68V150.13c0,28.14-20.6,54.91-54.91,54.91-32.75,0-54.36-24.08-54.9-54v-45.6h13.68V150.5h.18a41.14,41.14,0,0,0,82.27-.37V63.56h10.22L743,32.58l-20.2,31H733.1v87.3c-.55,14.78-8.76,21.63-20.37,21.63s-22.36-7.22-22.36-22.36V86.39H638.6V152.5c1.46,37.22,30.82,71.77,74.13,71.77s75.32-36.2,75.32-74.14V32.49h9.32Z" transform="translate(0 -1.5)"/></svg>