<svg id="Layer_1" data-name="Layer 1" xmlns="http://www.w3.org/2000/svg" width="431.03" height="92.85" viewBox="0 0 431.03 92.85"><defs><style>.cls-1{fill:#fff;}.cls-2{fill:#131313;}</style></defs><title>UptimePM-Logo-White-Dark</title><path class="cls-1" d="M33.4,21.72H25.61L41.55,0,57.73,21.72H49.92V67.34c0,17.62-9.73,25.51-24.13,25.51C8.72,92.85,0,84.78,0,69V27.24H17.44V67.61c0,7.07,2.57,9.64,8,9.64s8-2.94,8-9.64Z"/><path class="cls-1" d="M56,27.88a118.25,118.25,0,0,1,19.91-1.74c14.41,0,29.37,2.75,29.37,22.85,0,16.61-12.12,23-24.78,23a60.54,60.54,0,0,1-7.07-.28V91.47H56ZM73.41,41.64V56.51a25.5,25.5,0,0,0,3.67.37c5,0,9.82-1.19,9.82-8.26,0-6.06-4.49-7.34-9.27-7.34A24.42,24.42,0,0,0,73.41,41.64Z"/><path class="cls-1" d="M159.4,42.84H141.78V91.47H124.34V42.84H106.72V27.24H159.4Z"/><path class="cls-1" d="M163.89,27.24h17.44V91.47H163.89Z"/><path class="cls-1" d="M239,68l1.84-15.87h-.65l-4.49,11.83L225.1,82.85h-5.69l-11.28-19-4.59-11.74h-.65l2.39,15.78V91.47H188.76V27.24H206L220.15,53l3,7.62h.64l2.66-7.8,13.21-25.6H256.4V91.47H239Z"/><path class="cls-1" d="M263,27.24h41.11v15.6H280.44v8.9h21.38v15.6H280.44v8.53h24.13v15.6H263Z"/><path class="cls-2" d="M309.71,27.88a118.25,118.25,0,0,1,19.91-1.74C344,26.14,359,28.89,359,49c0,16.61-12.11,23-24.78,23a60.29,60.29,0,0,1-7.06-.28V91.47H309.71Zm17.44,13.76V56.51a25.22,25.22,0,0,0,3.67.37c5,0,9.82-1.19,9.82-8.26,0-6.06-4.5-7.34-9.27-7.34A24.33,24.33,0,0,0,327.15,41.64Z"/><path class="cls-2" d="M413.59,68l1.84-15.87h-.65l-4.49,11.83L399.73,82.85H394l-11.28-19-4.59-11.74h-.64l2.38,15.78V91.47H363.39V27.24h17.26L394.78,53l3,7.62h.64l2.66-7.8,13.21-25.6H431V91.47H413.59Z"/></svg>