<svg xmlns="http://www.w3.org/2000/svg" xmlns:xlink="http://www.w3.org/1999/xlink" width="225" height="52" viewBox="0 0 225 52">
  <defs>
    <clipPath id="clip-UptimePM-Logo-Dark">
      <rect width="225" height="52"/>
    </clipPath>
  </defs>
  <g id="UptimePM-Logo-Dark" clip-path="url(#clip-UptimePM-Logo-Dark)">
    <g id="Group_2" data-name="Group 2" transform="translate(-43 -5)">
      <path id="Path_1" data-name="Path 1" d="M312.6,166.883H308.62l8.147-11.1,8.269,11.1h-3.992V190.2c0,9.005-4.972,13.039-12.335,13.039-8.724,0-13.18-4.127-13.18-12.195V169.7h8.912v20.637c0,3.612,1.313,4.925,4.081,4.925,2.72,0,4.081-1.5,4.081-4.925Z" transform="translate(-249.994 -148.783)" fill="#fff"/>
      <path id="Path_2" data-name="Path 2" d="M661.522,327.556a60.446,60.446,0,0,1,10.178-.891c7.364,0,15.009,1.407,15.009,11.679,0,8.489-6.191,11.773-12.664,11.773a31.4,31.4,0,0,1-3.611-.141V360.06h-8.912Zm8.912,7.035v7.6a12.716,12.716,0,0,0,1.876.188c2.58,0,5.019-.61,5.019-4.221,0-3.1-2.3-3.752-4.737-3.752A12.236,12.236,0,0,0,670.434,334.592Z" transform="translate(-587.377 -306.307)" fill="#fff"/>
      <path id="Path_3" data-name="Path 3" d="M1020.239,341.838h-9.005V366.7h-8.912V341.838h-9.005v-7.973h26.922Z" transform="translate(-893.235 -312.944)" fill="#fff"/>
      <path id="Path_4" data-name="Path 4" d="M1367.108,333.865h8.911V366.7h-8.911Z" transform="translate(-1237.807 -312.944)" fill="#fff"/>
      <path id="Path_5" data-name="Path 5" d="M1555.364,354.69l.938-8.114h-.328l-2.3,6.05-5.394,9.662h-2.908l-5.769-9.709-2.345-6h-.328l1.219,8.067V366.7h-8.442V333.865h8.818l7.223,13.18,1.548,3.893h.328l1.36-3.987,6.754-13.086h8.536V366.7h-8.912Z" transform="translate(-1387.697 -312.944)" fill="#fff"/>
      <path id="Path_6" data-name="Path 6" d="M2015.1,333.865h21.012v7.973h-12.1v4.55h10.928v7.973h-10.928v4.362h12.335V366.7H2015.1Z" transform="translate(-1835.148 -312.944)" fill="#fff"/>
      <path id="Path_7" data-name="Path 7" d="M2320.5,327.556a60.445,60.445,0,0,1,10.178-.891c7.364,0,15.009,1.407,15.009,11.679,0,8.489-6.191,11.773-12.664,11.773a31.4,31.4,0,0,1-3.612-.141V360.06H2320.5Zm8.911,7.035v7.6a12.718,12.718,0,0,0,1.876.188c2.58,0,5.018-.61,5.018-4.221,0-3.1-2.3-3.752-4.737-3.752A12.236,12.236,0,0,0,2329.406,334.592Z" transform="translate(-2116.667 -306.307)" fill="#2fa449"/>
      <path id="Path_8" data-name="Path 8" d="M2697.146,354.69l.938-8.114h-.328l-2.3,6.05-5.394,9.662h-2.908l-5.769-9.709-2.345-6h-.329l1.219,8.067V366.7h-8.442V333.865h8.818l7.223,13.18,1.548,3.893h.328l1.36-3.987,6.754-13.086h8.536V366.7h-8.911Z" transform="translate(-2440.225 -312.944)" fill="#2fa449"/>
    </g>
  </g>
</svg>
