<?xml version="1.0" standalone="no"?>
<!DOCTYPE svg PUBLIC "-//W3C//DTD SVG 20010904//EN"
 "http://www.w3.org/TR/2001/REC-SVG-20010904/DTD/svg10.dtd">
<svg version="1.0" xmlns="http://www.w3.org/2000/svg"
 width="700.000000pt" height="700.000000pt" viewBox="0 0 700.000000 700.000000"
 preserveAspectRatio="xMidYMid meet">
<metadata>
Created by potrace 1.11, written by Peter Selinger 2001-2013
</metadata>
<g transform="translate(0.000000,700.000000) scale(0.100000,-0.100000)"
fill="#000000" stroke="none">
<path d="M4365 6878 c-49 -68 -93 -127 -98 -133 -4 -5 -52 -71 -107 -145 -54
-74 -103 -140 -107 -145 -4 -6 -24 -33 -43 -60 -36 -53 -36 -53 -73 -100 -28
-36 -345 -468 -370 -505 -9 -14 -43 -59 -75 -101 -94 -127 -232 -317 -232
-322 0 -2 129 -4 288 -4 l287 1 0 -1805 c0 -992 -4 -1829 -8 -1859 -20 -143
-77 -283 -145 -357 -102 -113 -250 -166 -458 -166 -313 2 -485 128 -552 403
-12 47 -24 121 -28 165 -4 44 -8 780 -9 1635 -1 855 -3 1558 -4 1561 0 3 -295
5 -653 5 l-653 -1 0 -1650 c0 -907 3 -1693 7 -1745 58 -753 458 -1260 1148
-1454 30 -8 70 -18 89 -21 19 -3 37 -7 40 -9 3 -2 22 -7 41 -10 19 -3 47 -8
63 -11 59 -11 84 -15 132 -20 28 -4 64 -8 80 -11 17 -2 140 -6 275 -8 312 -5
531 21 736 86 38 12 74 22 79 24 6 1 55 21 110 45 234 100 431 250 582 444
167 215 293 521 338 820 2 11 6 40 10 65 3 25 8 56 10 70 15 95 18 393 19
1999 l1 1805 292 -1 c212 0 291 3 286 11 -5 8 -308 419 -355 481 -20 26 -95
126 -110 147 -9 12 -93 124 -185 248 -92 124 -253 340 -357 480 -104 140 -192
258 -196 263 -3 4 -46 -48 -95 -115z"/>
</g>
</svg>
